<?xml version="1.0" standalone="no"?>
<!DOCTYPE svg PUBLIC "-//W3C//DTD SVG 20010904//EN"
 "http://www.w3.org/TR/2001/REC-SVG-20010904/DTD/svg10.dtd">
<svg version="1.0" xmlns="http://www.w3.org/2000/svg"
 width="512.000000pt" height="512.000000pt" viewBox="0 0 512.000000 512.000000"
 preserveAspectRatio="xMidYMid meet">

<g transform="translate(0.000000,512.000000) scale(0.100000,-0.100000)"
fill="#000000" stroke="none">
<path d="M1424 4031 c-297 -73 -521 -321 -563 -625 -14 -102 -15 -1251 -1
-1365 25 -193 132 -383 283 -497 115 -87 293 -154 411 -154 l46 0 0 -339 0
-339 26 -31 c29 -34 83 -49 119 -33 13 6 226 172 472 370 247 197 460 362 474
365 13 4 226 7 472 7 510 0 531 2 682 75 199 97 333 258 397 480 l23 80 0 695
0 695 -23 80 c-64 222 -197 383 -397 480 -163 79 -102 75 -1292 74 -972 0
-1064 -2 -1129 -18z m2215 -206 c176 -42 332 -183 387 -351 18 -56 19 -95 19
-754 0 -659 -1 -698 -19 -754 -40 -121 -141 -240 -255 -300 -117 -61 -105 -59
-641 -65 -451 -6 -499 -8 -537 -24 -23 -11 -208 -151 -410 -313 l-368 -294 -5
243 c-5 263 -7 273 -67 329 -38 37 -93 58 -150 58 -214 1 -431 160 -499 366
-18 56 -19 95 -19 754 0 659 1 698 19 754 55 166 210 309 382 350 91 22 2070
22 2163 1z"/>
</g>
</svg>
