<?xml version="1.0" encoding="UTF-8" standalone="no"?>
<svg
   version="1.0"
   width="37.500008pt"
   height="36.228867pt"
   viewBox="0 0 37.500008 36.228867"
   preserveAspectRatio="xMidYMid"
   id="svg1"
   xmlns="http://www.w3.org/2000/svg"
   xmlns:svg="http://www.w3.org/2000/svg">
  <defs
     id="defs1" />
  <g
     transform="matrix(0.00798086,0,0,-0.00798086,-1.6857938,38.54315)"
     fill="#000000"
     stroke="none"
     id="g1">
    <path
       d="m 3210,4808 c -28,-19 -53,-60 -130,-213 -53,-105 -124,-237 -159,-295 -266,-437 -627,-894 -994,-1259 l -125,-123 -33,68 c -60,126 -192,229 -328,254 -75,14 -795,13 -863,-1 -139,-29 -261,-126 -326,-258 l -37,-76 -3,-1114 C 210,794 211,671 226,621 268,473 384,355 531,309 c 56,-17 97,-19 479,-19 382,0 424,2 479,19 80,25 136,59 195,119 l 49,50 61,-46 c 33,-26 93,-61 131,-79 144,-66 93,-63 1142,-63 648,0 969,3 1005,11 73,15 202,79 265,131 117,97 223,269 277,448 15,47 87,409 161,805 144,768 151,820 120,940 -51,195 -185,354 -380,450 -153,76 -166,78 -547,83 l -336,3 44,75 c 146,247 251,525 284,753 18,120 8,317 -20,406 -83,265 -291,418 -585,432 -104,5 -112,4 -145,-19 z m 292,-341 c 103,-53 148,-149 148,-316 0,-271 -139,-613 -398,-979 -93,-130 -104,-166 -74,-235 11,-24 35,-55 53,-68 l 34,-24 505,-5 c 436,-5 511,-8 546,-22 163,-64 274,-197 274,-327 0,-63 -250,-1412 -281,-1516 -49,-165 -142,-291 -248,-339 l -59,-26 -944,2 -943,3 -60,29 c -107,53 -188,156 -221,281 -11,40 -14,208 -14,815 v 766 l 48,39 c 108,91 318,294 450,438 425,461 809,992 1016,1405 65,130 67,131 168,79 z M 1419,2910 c 27,-13 46,-33 60,-63 l 21,-44 -2,-1049 c -3,-993 -4,-1051 -21,-1077 -10,-16 -32,-37 -50,-47 -30,-19 -53,-20 -417,-20 -364,0 -387,1 -417,20 -67,41 -64,-33 -61,1149 l 3,1069 25,27 c 49,53 56,54 453,55 346,0 370,-1 406,-20 z"
       id="path1" />
  </g>
</svg>
