<svg xmlns="http://www.w3.org/2000/svg" version="1.0" width="512.000000pt" height="512.000000pt" viewBox="0 0 512.000000 512.000000" preserveAspectRatio="xMidYMid meet">

<g transform="translate(0.000000,512.000000) scale(0.100000,-0.100000)" fill="#4b4b4b" stroke="none">
<path d="M1215 4626 c-78 -35 -116 -131 -82 -208 18 -40 990 -1022 1031 -1042 29 -14 78 -16 343 -16 l308 0 479 -479 479 -480 -156 -3 c-139 -3 -159 -5 -183 -24 -53 -39 -69 -71 -69 -134 0 -63 16 -95 69 -134 27 -20 39 -21 406 -21 367 0 379 1 406 21 15 11 37 33 48 48 20 27 21 39 21 406 0 367 -1 379 -21 406 -39 53 -71 69 -134 69 -63 0 -95 -16 -134 -69 -19 -24 -21 -44 -24 -183 l-3 -156 -517 516 c-285 284 -530 521 -545 527 -17 6 -146 10 -334 10 l-305 0 -462 467 c-274 277 -474 472 -493 480 -41 16 -89 16 -128 -1z" fill="#4b4b4b"/>
<path d="M895 3186 c-37 -17 -70 -52 -84 -89 -8 -19 -11 -360 -11 -1081 l0 -1052 -44 -12 c-141 -37 -154 -242 -19 -298 48 -21 3598 -21 3646 0 135 56 122 261 -19 298 l-43 12 -3 347 c-3 333 -4 349 -24 375 -11 15 -33 37 -48 48 -27 20 -39 21 -406 21 -367 0 -379 -1 -406 -21 -15 -11 -37 -33 -48 -48 -20 -26 -21 -42 -24 -377 l-3 -349 -159 0 -160 0 -2 749 c-3 739 -3 750 -24 777 -11 15 -33 37 -48 48 -27 20 -39 21 -406 21 -367 0 -379 -1 -406 -21 -15 -11 -37 -33 -48 -48 -21 -27 -21 -38 -24 -777 l-2 -749 -160 0 -160 0 -2 1069 c-3 1063 -3 1070 -24 1097 -11 15 -33 37 -48 48 -26 20 -41 21 -394 23 -291 2 -373 0 -397 -11z" fill="#4b4b4b"/>
</g>
</svg>