<svg xmlns="http://www.w3.org/2000/svg" version="1.0" width="512.000000pt" height="512.000000pt" viewBox="0 0 512.000000 512.000000" preserveAspectRatio="xMidYMid meet">

<g transform="translate(0.000000,512.000000) scale(0.100000,-0.100000)" fill="#4b4b4b" stroke="none">
<path d="M3455 4626 c-94 -41 -124 -169 -58 -247 43 -51 76 -59 235 -59 l143 0 -480 -480 -480 -480 -308 0 c-265 0 -314 -2 -343 -16 -45 -21 -1015 -1005 -1033 -1047 -38 -90 27 -201 126 -214 83 -11 83 -11 577 488 l464 469 305 0 c188 0 317 4 334 10 15 6 260 243 545 527 l517 516 3 -156 c3 -139 5 -159 24 -183 39 -53 71 -69 134 -69 63 0 95 16 134 69 20 27 21 39 21 406 0 367 -1 379 -21 406 -11 15 -33 37 -48 48 -26 20 -41 21 -394 23 -290 2 -373 0 -397 -11z" fill="#4b4b4b"/>
<path d="M3455 3186 c-37 -17 -70 -52 -84 -89 -8 -19 -11 -360 -11 -1083 l0 -1054 -160 0 -160 0 -2 749 c-3 739 -3 750 -24 777 -11 15 -33 37 -48 48 -27 20 -39 21 -406 21 -367 0 -379 -1 -406 -21 -15 -11 -37 -33 -48 -48 -21 -27 -21 -38 -24 -777 l-2 -749 -160 0 -159 0 -3 349 c-3 335 -4 351 -24 377 -11 15 -33 37 -48 48 -27 20 -39 21 -406 21 -367 0 -379 -1 -406 -21 -15 -11 -37 -33 -48 -48 -20 -26 -21 -42 -24 -375 l-3 -347 -43 -12 c-141 -37 -154 -242 -19 -298 48 -21 3598 -21 3646 0 135 56 122 261 -19 298 l-44 12 -2 1067 c-3 1061 -3 1068 -24 1095 -11 15 -33 37 -48 48 -26 20 -41 21 -394 23 -291 2 -373 0 -397 -11z" fill="#4b4b4b"/>
</g>
</svg>